<svg width="458" height="389" viewBox="0 0 458 389" fill="none" xmlns="http://www.w3.org/2000/svg">
<rect x="2" y="50" width="450" height="73" fill="black"/>
<g filter="url(#filter0_d_27_19)">
<mask id="path-2-inside-1_27_19" fill="white">
<path d="M2 123C2 106.431 15.4315 93 32 93H422C438.569 93 452 106.431 452 123V333C452 360.614 429.614 383 402 383H52C24.3858 383 2 360.614 2 333V123Z"/>
</mask>
<path d="M2 123C2 106.431 15.4315 93 32 93H422C438.569 93 452 106.431 452 123V333C452 360.614 429.614 383 402 383H52C24.3858 383 2 360.614 2 333V123Z" fill="white"/>
<path d="M2 93H452H2ZM454 333C454 361.719 430.719 385 402 385H52C23.2812 385 0 361.719 0 333H4C4 359.51 25.4903 381 52 381H402C428.51 381 450 359.51 450 333H454ZM52 385C23.2812 385 0 361.719 0 333V125C0 107.327 14.3269 93 32 93C16.536 93 4 106.431 4 123V333C4 359.51 25.4903 381 52 381V385ZM422 93C439.673 93 454 107.327 454 125V333C454 361.719 430.719 385 402 385V381C428.51 381 450 359.51 450 333V123C450 106.431 437.464 93 422 93Z" fill="black" mask="url(#path-2-inside-1_27_19)"/>
</g>
<path d="M165.403 0L399.5 0C404.104 0 418.5 3.5 418.5 20.5C418.5 37.5 429.745 43 435.5 43C437.418 43 445.5 46.5 445.5 50H305.5H142C149.754 45.2221 149.29 36.25 149.29 23.75C149.29 11.6667 155.812 0 165.403 0Z" fill="url(#paint0_linear_27_19)"/>
<path d="M22 0L141.5 0C145.955 0 156.5 6 156.5 23C156.5 40 164.931 43 170.5 43C170.5 43 184.515 43 186 43C187.856 43 192 46.0833 192 49.5833H159.797L80.8985 49.7917H2C2 46.2917 2 48.5 2 45.5V41C2 33 2 31.5 2 19C2 6.91667 11.9752 0 22 0Z" fill="black"/>
<path d="M2 43H445C448.866 43 452 46.134 452 50V50H2V43Z" fill="black"/>
<defs>
<filter id="filter0_d_27_19" x="0" y="91" width="458" height="298" filterUnits="userSpaceOnUse" color-interpolation-filters="sRGB">
<feFlood flood-opacity="0" result="BackgroundImageFix"/>
<feColorMatrix in="SourceAlpha" type="matrix" values="0 0 0 0 0 0 0 0 0 0 0 0 0 0 0 0 0 0 127 0" result="hardAlpha"/>
<feOffset dx="2" dy="2"/>
<feGaussianBlur stdDeviation="2"/>
<feComposite in2="hardAlpha" operator="out"/>
<feColorMatrix type="matrix" values="0 0 0 0 0 0 0 0 0 0 0 0 0 0 0 0 0 0 0.7 0"/>
<feBlend mode="normal" in2="BackgroundImageFix" result="effect1_dropShadow_27_19"/>
<feBlend mode="normal" in="SourceGraphic" in2="effect1_dropShadow_27_19" result="shape"/>
</filter>
<linearGradient id="paint0_linear_27_19" x1="437" y1="43.5" x2="127" y2="-16.5" gradientUnits="userSpaceOnUse">
<stop/>
<stop offset="1" stop-color="#565656"/>
</linearGradient>
</defs>
</svg>
